STARTFONT 2.1
COMMENT
COMMENT Converted from OpenType font "Q:\font stuff\winfont\MA Sexy.ttf" by "otf2bdf 3.0".
COMMENT
FONT -FreeType-MA Sexy-Medium-R-Normal--32-320-72-72-P-163-ISO10646-1
SIZE 32 72 72
FONTBOUNDINGBOX 49 57 -5 -24
STARTPROPERTIES 19
FOUNDRY "FreeType"
FAMILY_NAME "MA Sexy"
WEIGHT_NAME "Medium"
SLANT "R"
SETWIDTH_NAME "Normal"
ADD_STYLE_NAME ""
PIXEL_SIZE 32
POINT_SIZE 320
RESOLUTION_X 72
RESOLUTION_Y 72
SPACING "P"
AVERAGE_WIDTH 163
CHARSET_REGISTRY "ISO10646"
CHARSET_ENCODING "1"
FONT_ASCENT 32
FONT_DESCENT 28
COPYRIGHT "© copyright 2003. Margarete Antonio.  All Rights Reserved."
_OTF_FONTFILE "Q:\font stuff\winfont\MA Sexy.ttf"
_OTF_PSNAME "MASexy"
ENDPROPERTIES
CHARS 98
STARTCHAR 0020
ENCODING 32
SWIDTH 281 0
DWIDTH 9 0
BBX 0 0 0 0
BITMAP
ENDCHAR
STARTCHAR 0021
ENCODING 33
SWIDTH 187 0
DWIDTH 6 0
BBX 4 31 1 0
BITMAP
30
30
30
30
30
30
30
30
20
20
20
20
20
60
60
60
40
40
40
40
40
40
40
C0
00
00
00
00
00
C0
80
ENDCHAR
STARTCHAR 0022
ENCODING 34
SWIDTH 343 0
DWIDTH 11 0
BBX 5 5 3 26
BITMAP
D8
D8
50
50
50
ENDCHAR
STARTCHAR 0023
ENCODING 35
SWIDTH 437 0
DWIDTH 14 0
BBX 14 20 0 3
BITMAP
0010
0210
0210
0210
0210
0210
02FC
1F10
0230
0230
03FC
0E30
1230
2220
4220
C420
C420
C820
4800
7000
ENDCHAR
STARTCHAR 0024
ENCODING 36
SWIDTH 406 0
DWIDTH 13 0
BBX 12 25 0 4
BITMAP
0040
0140
03C0
0D60
1A60
3A70
3A40
3AC0
3E80
1E80
0780
0380
02C0
02E0
02B0
02B0
8290
C290
C2B0
42A0
22C0
1F80
0280
0280
0200
ENDCHAR
STARTCHAR 0025
ENCODING 37
SWIDTH 375 0
DWIDTH 12 0
BBX 11 28 1 1
BITMAP
00C0
0140
0140
3380
DE00
9A00
9200
B200
6200
0600
0400
0400
0400
0400
0400
0400
0400
0400
0400
09C0
0A20
0B40
09C0
0800
1000
1000
2000
C000
ENDCHAR
STARTCHAR 0026
ENCODING 38
SWIDTH 406 0
DWIDTH 13 0
BBX 14 23 0 1
BITMAP
01C0
0320
0610
0C10
0C10
0C20
0C60
04C0
0500
0200
0540
08E0
1070
2038
6068
404C
C08C
617C
7E4C
1888
0090
00A0
0040
ENDCHAR
STARTCHAR 0027
ENCODING 39
SWIDTH 250 0
DWIDTH 8 0
BBX 3 6 3 24
BITMAP
60
E0
60
20
40
80
ENDCHAR
STARTCHAR 0028
ENCODING 40
SWIDTH 406 0
DWIDTH 13 0
BBX 9 41 1 -9
BITMAP
0080
0100
0200
0600
0400
0800
1800
1000
3000
2000
2000
6000
6000
4000
C000
C000
C000
8000
8000
8000
8000
8000
8000
8000
8000
8000
8000
8000
C000
C000
4000
4000
6000
6000
2000
3000
1000
1000
0800
0800
0400
ENDCHAR
STARTCHAR 0029
ENCODING 41
SWIDTH 312 0
DWIDTH 10 0
BBX 10 41 0 -10
BITMAP
8000
4000
6000
3000
1000
0800
0C00
0400
0600
0200
0200
0300
0300
0100
0180
0180
0180
0080
0080
0080
0080
00C0
00C0
00C0
0080
0080
0080
0080
0080
0180
0180
0100
0100
0300
0200
0200
0400
0400
0800
0800
1000
ENDCHAR
STARTCHAR 002A
ENCODING 42
SWIDTH 312 0
DWIDTH 10 0
BBX 10 12 0 20
BITMAP
0300
0480
2580
4900
4A00
3FC0
9CC0
6B00
1300
1200
1200
1C00
ENDCHAR
STARTCHAR 002B
ENCODING 43
SWIDTH 281 0
DWIDTH 9 0
BBX 7 7 1 11
BITMAP
10
10
F0
FE
10
10
10
ENDCHAR
STARTCHAR 002C
ENCODING 44
SWIDTH 125 0
DWIDTH 4 0
BBX 3 5 1 -2
BITMAP
40
C0
E0
40
40
ENDCHAR
STARTCHAR 002D
ENCODING 45
SWIDTH 281 0
DWIDTH 9 0
BBX 8 2 0 13
BITMAP
3F
F0
ENDCHAR
STARTCHAR 002E
ENCODING 46
SWIDTH 156 0
DWIDTH 5 0
BBX 2 2 2 0
BITMAP
C0
C0
ENDCHAR
STARTCHAR 002F
ENCODING 47
SWIDTH 250 0
DWIDTH 8 0
BBX 9 35 0 -4
BITMAP
0080
0080
0180
0180
0180
0100
0100
0100
0300
0300
0200
0200
0200
0600
0400
0400
0400
0400
0C00
0800
0800
0800
1800
1000
1000
1000
3000
2000
2000
2000
6000
4000
4000
C000
C000
ENDCHAR
STARTCHAR 0030
ENCODING 48
SWIDTH 656 0
DWIDTH 21 0
BBX 21 28 0 1
BITMAP
000FC0
003E60
00C820
019030
031010
060018
0C0018
180018
180018
300018
300018
600018
600018
600018
E00018
E00018
C00010
C00030
E00030
E00020
600060
600040
6000C0
300080
180100
0C0600
031800
00E000
ENDCHAR
STARTCHAR 0031
ENCODING 49
SWIDTH 156 0
DWIDTH 5 0
BBX 2 27 2 1
BITMAP
80
80
C0
80
80
80
80
80
80
80
80
80
80
80
80
80
80
80
80
80
80
80
80
80
80
80
80
ENDCHAR
STARTCHAR 0032
ENCODING 50
SWIDTH 687 0
DWIDTH 22 0
BBX 23 28 1 1
BITMAP
004000
03B800
040C00
040C00
080600
080600
000600
000600
000600
000600
000600
000600
000600
000600
000400
000C00
000800
001800
001000
001000
002000
1FA000
7FE000
C0F800
808E00
810386
C2007C
7C0000
ENDCHAR
STARTCHAR 0033
ENCODING 51
SWIDTH 625 0
DWIDTH 20 0
BBX 18 31 1 0
BITMAP
007000
03FE00
040600
080300
100300
200380
000100
000300
000300
000200
000600
000400
000C00
007800
019E00
023700
026380
038180
0001C0
0001C0
0001C0
0001C0
0001C0
0001C0
0001C0
800380
800300
400600
300C00
0C7800
03C000
ENDCHAR
STARTCHAR 0034
ENCODING 52
SWIDTH 625 0
DWIDTH 20 0
BBX 18 33 1 -3
BITMAP
3003C0
200640
600C40
600C40
601840
401880
C01880
C03100
C03200
C03400
C03800
C7F000
F87000
C06000
806000
006000
006000
006000
006000
006000
006000
006000
006000
006000
006000
006000
006000
006000
004000
004000
004000
004000
004000
ENDCHAR
STARTCHAR 0035
ENCODING 53
SWIDTH 562 0
DWIDTH 18 0
BBX 17 32 0 -3
BITMAP
000200
0FFC00
0E0000
080000
080000
180000
180000
180000
180000
18F000
1F0800
180400
100200
300300
000300
000100
000100
000180
000180
000180
000180
000300
000300
000300
000300
000600
000600
800C00
401800
603000
104000
0F8000
ENDCHAR
STARTCHAR 0036
ENCODING 54
SWIDTH 562 0
DWIDTH 18 0
BBX 18 30 0 1
BITMAP
000200
000C00
001000
006000
008000
018000
030000
060000
060000
0C0000
1C0000
180000
380000
300000
300000
700400
603F00
604180
E081C0
E100C0
E200C0
E600C0
E40080
6C0080
780180
780100
380200
1C0400
0F1800
01E000
ENDCHAR
STARTCHAR 0037
ENCODING 55
SWIDTH 625 0
DWIDTH 20 0
BBX 19 36 0 -6
BITMAP
0001E0
000320
000220
000660
FFFF80
C00C00
000C00
000800
001800
001800
001800
001800
001800
001000
001000
003000
003000
003000
003000
003000
003000
002000
002000
006000
006000
006000
006000
006000
006000
006000
004000
00C000
00C000
00C000
00C000
00C000
ENDCHAR
STARTCHAR 0038
ENCODING 56
SWIDTH 500 0
DWIDTH 16 0
BBX 15 34 0 -3
BITMAP
0030
000C
0004
01E4
0612
0C0A
1804
1804
3008
3008
3010
3020
3040
3040
3880
1900
1B00
0E00
0C00
0E00
0B00
1300
3180
2180
60C0
60C0
C0C0
C0C0
C0C0
C040
C0C0
4080
2100
1E00
ENDCHAR
STARTCHAR 0039
ENCODING 57
SWIDTH 500 0
DWIDTH 16 0
BBX 17 30 0 0
BITMAP
01FC00
060E00
0C0600
180700
100700
200300
600300
400380
400380
C00780
C00F00
C03B00
E06300
7F8300
1C0700
000700
000600
000600
000E00
000C00
000C00
001800
001800
003000
006000
00C000
018000
030000
060000
180000
ENDCHAR
STARTCHAR 003A
ENCODING 58
SWIDTH 125 0
DWIDTH 4 0
BBX 2 8 1 8
BITMAP
C0
80
00
00
00
00
C0
C0
ENDCHAR
STARTCHAR 003B
ENCODING 59
SWIDTH 156 0
DWIDTH 5 0
BBX 3 11 2 1
BITMAP
60
60
60
00
00
60
E0
60
20
40
80
ENDCHAR
STARTCHAR 003D
ENCODING 61
SWIDTH 250 0
DWIDTH 8 0
BBX 6 5 1 11
BITMAP
9C
FC
00
FC
80
ENDCHAR
STARTCHAR 003F
ENCODING 63
SWIDTH 468 0
DWIDTH 15 0
BBX 14 28 1 1
BITMAP
C7F0
7818
3018
7808
C80C
881C
8818
9018
F010
0030
0020
0060
0040
00C0
0080
0180
0100
0100
0100
0100
0100
0000
0000
0000
0000
0000
0300
0300
ENDCHAR
STARTCHAR 0040
ENCODING 64
SWIDTH 468 0
DWIDTH 15 0
BBX 15 18 0 2
BITMAP
00F0
031C
0404
0806
1006
21E4
2654
4464
48A4
48A4
48C8
C8C8
C8F0
4F30
6020
7060
3F80
0E00
ENDCHAR
STARTCHAR 0041
ENCODING 65
SWIDTH 875 0
DWIDTH 28 0
BBX 27 37 1 -6
BITMAP
00001000
00006000
00008180
000303C0
00060640
00080C40
00181C40
00301840
00603880
00C03080
00C03080
01806080
03006100
03006100
0600C100
0E00C200
0C00C200
1C008600
1C018400
38018400
38018800
38018800
70019000
70011000
70012000
E001A000
E001C000
E001C000
E0018020
E001C040
E003C0C0
E0066180
E00C3F00
F0101C00
70600000
38800000
1F000000
ENDCHAR
STARTCHAR 0042
ENCODING 66
SWIDTH 718 0
DWIDTH 23 0
BBX 23 37 0 -4
BITMAP
030000
030000
030000
010000
018300
018F00
019980
019180
01A080
01C080
018100
018100
018100
018380
0185F0
038838
05B01C
05C00C
05800E
098006
098006
090006
110006
13000E
13000E
23000C
23000C
230018
430038
470030
460060
86C180
8E3E00
8C0000
9C0000
F80000
600000
ENDCHAR
STARTCHAR 0043
ENCODING 67
SWIDTH 593 0
DWIDTH 19 0
BBX 19 37 0 -8
BITMAP
000040
000780
003800
006000
00C000
018000
030000
060000
0C0000
0C0000
1C0000
180000
380000
300000
300000
700000
700000
600000
E00000
E00000
E00000
E00000
E00000
E00000
E00000
E00000
E00000
E00000
E00000
E00020
600060
700040
700080
380180
1C0600
0F1C00
07F800
ENDCHAR
STARTCHAR 0044
ENCODING 68
SWIDTH 687 0
DWIDTH 22 0
BBX 22 40 0 -10
BITMAP
030000
060780
0C1FC0
183060
184030
104030
308018
308018
310018
31000C
32000C
32000C
34000C
34000C
34000C
38000C
38000C
38000C
10000C
10000C
10000C
30001C
300018
300018
500038
500030
500070
500060
5000E0
9000C0
900180
900300
900600
900C00
903000
91C000
9F0000
900000
B00000
E00000
ENDCHAR
STARTCHAR 0045
ENCODING 69
SWIDTH 625 0
DWIDTH 20 0
BBX 21 36 0 -7
BITMAP
0007C0
001800
006000
00C000
018000
038000
070000
060000
0E0000
0C0000
0C0000
1C0000
1C0000
1C0000
0E0200
0FDC00
03F000
018000
030000
060000
0C0000
180018
300010
300010
600020
600020
E00040
E00040
C00080
E00100
E00300
600600
700C00
7C7000
3FC000
0E0000
ENDCHAR
STARTCHAR 0046
ENCODING 70
SWIDTH 593 0
DWIDTH 19 0
BBX 22 41 0 -10
BITMAP
000038
0000FC
000184
00030C
000618
00FFE0
1F0400
600C00
600C00
C00C00
C00C00
C00800
601800
181800
001800
001800
001800
001800
001800
003800
003E00
00F800
003800
003800
003000
003000
003000
003000
003000
003000
003000
007000
006000
006000
006000
006000
00C000
20C000
118000
118000
0E0000
ENDCHAR
STARTCHAR 0047
ENCODING 71
SWIDTH 562 0
DWIDTH 18 0
BBX 20 44 0 -16
BITMAP
0003E0
000C10
001000
002000
004000
008000
018000
030000
020000
060000
0C0000
0C0000
1C0000
180000
380000
300000
700000
700000
700060
600040
E000C0
E000C0
E001C0
E002C0
E004C0
F008C0
7010C0
7EE0C0
3F80C0
0E0080
000180
000180
000180
000180
000180
000100
000100
300100
300300
100200
180600
080C00
0C1800
07E000
ENDCHAR
STARTCHAR 0048
ENCODING 72
SWIDTH 812 0
DWIDTH 26 0
BBX 29 36 0 -6
BITMAP
000000F0
000001F8
00C00398
00C00708
00C00608
00C00E08
00C00C10
00C00C10
00C00C20
00C018C0
00C01900
00C01E00
00C03800
00C1D800
00CE3000
01F03000
03803000
0D803000
31803000
41803000
81803000
03003000
03003000
03003000
03003000
03003000
06003000
06003000
06001000
04001000
0C001800
0C000800
080006C0
10000100
10000000
20000000
ENDCHAR
STARTCHAR 0049
ENCODING 73
SWIDTH 656 0
DWIDTH 21 0
BBX 24 37 0 -5
BITMAP
000070
0001B0
000238
000618
000C18
000818
00081C
00101C
00101C
00101C
001018
001018
003018
003018
002018
002018
002018
003018
003018
001030
001030
001030
001030
001070
000860
000860
000860
0004C0
0004C0
0004C0
007380
FF8380
E00300
600F80
1C3E41
07F822
00001C
ENDCHAR
STARTCHAR 004A
ENCODING 74
SWIDTH 687 0
DWIDTH 22 0
BBX 25 40 0 -10
BITMAP
00000380
00000700
00000600
00000E00
00000C00
00000C00
00000C00
00000C00
00000C00
00000C00
00000C00
00000C00
00000C00
00000C00
00000C00
00000C00
00000C00
00000C00
00001C00
00001C00
00001800
00001800
00001800
00001800
00001800
00001800
00003000
00003000
00003000
00003000
00006000
00006000
00004000
0000C000
00008000
80010000
60020000
300C0000
1EF00000
01000000
ENDCHAR
STARTCHAR 004B
ENCODING 75
SWIDTH 562 0
DWIDTH 18 0
BBX 25 40 0 -11
BITMAP
00004000
03004000
03806000
03804000
01804000
01804000
0180C000
01808000
01808000
01810000
01810000
01820000
01860000
01840000
01880000
09980000
3F300000
7F600000
63C00000
63800000
67C00000
1B600000
02300000
02180000
06080000
06040000
06020000
04010000
0C00C000
0C006000
0C003C80
18001F00
18000000
18000000
30000000
30000000
30000000
60000000
E0000000
40000000
ENDCHAR
STARTCHAR 004C
ENCODING 76
SWIDTH 343 0
DWIDTH 11 0
BBX 23 37 0 -8
BITMAP
001000
002000
004000
00C000
008000
018000
018000
018000
010000
030000
030000
030000
030000
030000
030000
030000
030000
030000
030000
030000
060000
060000
060000
060000
060000
060000
060000
060000
060000
060000
0C0000
0C0000
1E0000
6F8002
DC6006
D81C0C
F003F8
ENDCHAR
STARTCHAR 004D
ENCODING 77
SWIDTH 1000 0
DWIDTH 32 0
BBX 33 41 0 -14
BITMAP
000000E000
001E01F000
003E023800
0067061800
20430C1800
30C3881800
3181881800
1901981800
0F01901C00
0E01901C00
0601901800
0601B01800
0601A01800
0A01A01800
0B01A01800
0B01A01800
0B01E01800
0900E03800
1180C03800
1180C03000
1180C03000
1180C03000
2180C03000
2180803000
2180803000
20C0003000
20C0003000
4080003080
4180003080
4180001080
4180001980
4180000700
8180000000
8380000000
8300000000
8300000000
8700000000
C600000000
7E00000000
7C00000000
3800000000
ENDCHAR
STARTCHAR 004E
ENCODING 78
SWIDTH 781 0
DWIDTH 25 0
BBX 26 37 1 -10
BITMAP
0001F000
00061800
080C0C00
08180600
0C100600
0C200200
04400300
06C00300
06800300
07000300
03000300
07000300
07000300
07000300
09800300
09800600
11800600
10C00600
20C00C00
20C00C00
20E00C00
40600800
40601800
40601800
40601800
80601800
80601800
80601800
80601800
80600840
80600440
806003C0
80C00000
81C00000
C3800000
6F000000
3E000000
ENDCHAR
STARTCHAR 004F
ENCODING 79
SWIDTH 656 0
DWIDTH 21 0
BBX 20 35 1 -10
BITMAP
000020
000060
000CC0
007F80
00C3C0
010240
030660
070C20
0DF820
08F030
180030
100030
300030
300030
200030
600030
600030
600030
C00070
C00060
C00060
C00060
C000E0
C000C0
C000C0
C001C0
E00180
E00180
E00300
E00700
700600
700C00
381800
1EE000
010000
ENDCHAR
STARTCHAR 0050
ENCODING 80
SWIDTH 531 0
DWIDTH 17 0
BBX 20 41 0 -10
BITMAP
000300
001FC0
0020E0
8040E0
C08060
608060
210070
310070
120070
120060
120060
0C0060
0C0040
0C00C0
0C0080
0C0180
0C0300
0C7C00
0C0000
0E0000
0E0000
0E0000
0E0000
0E0000
130000
130000
130000
130000
130000
130000
130000
130000
130000
130000
130000
130000
130000
130000
120000
160000
1C0000
ENDCHAR
STARTCHAR 0051
ENCODING 81
SWIDTH 875 0
DWIDTH 28 0
BBX 40 37 0 -8
BITMAP
0001F80000
0007BE0000
001C790000
0038608000
00F0C0C000
01C0804000
0380806000
0700806000
0F00406000
0E00006000
1C00006000
1800006000
3800006000
3000006000
7000006000
600000E000
600000C000
600000C000
400001C000
C000018000
C000018000
C000038000
C000030000
C000030000
C000060000
40000C0000
40000C0000
4000180000
4000300000
4000600000
2000C00003
13FF800002
0407800004
0805C00008
0E18700030
07E00C01C0
000003FF00
ENDCHAR
STARTCHAR 0052
ENCODING 82
SWIDTH 625 0
DWIDTH 20 0
BBX 25 41 1 -13
BITMAP
00030000
000F8000
C03F8000
4071C000
60C1C000
61C1C000
6181C000
2301C000
32018000
36018000
34018000
3C030000
38030000
18060000
18040000
180C0000
18180000
18100000
2C3C0000
2C6F0000
2D830000
2F010000
2C010000
6C010000
4C010000
4C010000
4C010000
4C010000
CC010000
CC010000
8C018000
8C018000
8C018000
8C00C080
8800C080
98006100
98003100
98001E00
90000000
A0000000
40000000
ENDCHAR
STARTCHAR 0053
ENCODING 83
SWIDTH 437 0
DWIDTH 14 0
BBX 18 53 -3 -21
BITMAP
00FC00
070300
0E0080
3C0040
380000
700000
600000
E00000
E00000
E00000
E00000
600000
600000
700000
300000
180000
180000
0C0000
040000
060000
030000
010000
008000
00C000
006000
003000
003800
001800
000C00
000C00
000600
000700
000300
000300
000380
000380
000180
0001C0
000180
000180
000180
000180
000380
000300
000300
000600
003E00
01CD00
061800
0C1800
0C3000
1CC000
1F8000
ENDCHAR
STARTCHAR 0054
ENCODING 84
SWIDTH 593 0
DWIDTH 19 0
BBX 23 48 0 -17
BITMAP
00000E
00003E
000032
000062
000044
0000C8
0000D0
3FFFE0
6001C0
C00180
C00180
E00180
600180
000180
000180
000180
000180
000380
000380
000380
000380
000300
000300
000300
000300
000300
000300
000300
000300
000300
000700
000700
000600
000600
000600
000600
000600
000600
000400
000C00
000C00
000800
000800
001800
003000
006000
00C000
0F0000
ENDCHAR
STARTCHAR 0055
ENCODING 85
SWIDTH 750 0
DWIDTH 24 0
BBX 24 30 0 -4
BITMAP
000018
000034
008074
010064
0200E4
0600C8
0400C8
0800C8
0800D0
1800D0
1000D0
3000E0
3000E0
2000E0
6000C0
6000C0
6000C0
6000C0
E001C0
E00140
E00340
E00260
E00660
E00460
600860
601820
701030
382010
0CC008
030007
ENDCHAR
STARTCHAR 0056
ENCODING 86
SWIDTH 593 0
DWIDTH 19 0
BBX 27 42 -1 -10
BITMAP
000001E0
00000380
00000700
00000E00
00001C00
00001800
00003800
00003000
00003000
00006000
38006000
7C006000
DC004000
0C004000
0C00C000
0600C000
06008000
06008000
06008000
02008000
03008000
03008000
03018000
03010000
03010000
01010000
01010000
01010000
01010000
01010000
01020000
01020000
01020000
01020000
01060000
00840000
008C0000
00880000
00980000
00B00000
00E00000
00400000
ENDCHAR
STARTCHAR 0057
ENCODING 87
SWIDTH 1125 0
DWIDTH 36 0
BBX 44 39 0 -9
BITMAP
000000000060
0000000000F0
000000000180
000000000300
000001C00700
000003400600
000006400C00
1F8006400C00
7FC006401800
E1E00C401800
C0700C801000
80700C803000
80380C802000
80180C806000
401C0D004000
300C0D004000
000C0D00C000
000E0E008000
00060E018000
00060C010000
00060C010000
00060E030000
00060E020000
000616060000
000616040000
000226040000
000226080000
000242080000
000243180000
000343100000
000383100000
000381A00000
000380E00000
000300000000
000300000000
000300000000
000300000000
000300000000
000200000000
ENDCHAR
STARTCHAR 0058
ENCODING 88
SWIDTH 625 0
DWIDTH 20 0
BBX 33 45 -3 -14
BITMAP
3800000000
7E00000000
EF00000000
C380000000
81C0040000
80E00C0000
80600C0000
C070080000
7030180000
3038100000
0018300000
001C200000
000C600000
000C400000
000CC00000
0006C00000
0007800000
0003800000
0003000000
0003000000
0007800000
0007800000
000D800000
000C800000
0018C00000
0018C00000
0030400000
0030600000
0060600000
0060300000
00C0300000
0080300000
0180180000
0300180000
03000C0000
00000C0000
0000060000
0000060000
0000030000
0000010000
0000018000
000000C000
0000006000
0000003000
0000000F80
ENDCHAR
STARTCHAR 0059
ENCODING 89
SWIDTH 625 0
DWIDTH 20 0
BBX 26 55 -3 -24
BITMAP
00000040
000001C0
00000340
3C000640
66000E40
C2000C80
C1000C80
C1001C80
C1001900
E1001900
13001900
03001A00
03001A00
03001A00
03001C00
03003400
03003400
07003800
06003800
06003800
06003000
06003000
06007000
07007000
0300B000
01813000
00E63000
00183000
00003000
00003000
00003000
00003000
00003000
00003000
00003000
00007000
00007000
00006000
00006000
00006000
00006000
00006000
00006000
00006000
0000C000
0000C000
0000C000
00008000
00018000
00010000
00030000
00060000
000C0000
00180000
03E00000
ENDCHAR
STARTCHAR 005A
ENCODING 90
SWIDTH 625 0
DWIDTH 20 0
BBX 29 41 0 -16
BITMAP
00000700
00000F00
00001D00
00001E00
003FF800
03C06000
1C006000
6000C000
4001C000
80018000
80038000
00030000
00060000
00060000
00060000
000C0000
000C0000
00180000
00180000
00180000
00300000
00300000
00600000
00600000
00600000
00C00000
00C00000
01C00000
01800018
01800010
03000020
03000040
060000C0
047F8700
0D80FE00
0E000000
18000000
30000000
60000000
C0000000
80000000
ENDCHAR
STARTCHAR 005B
ENCODING 91
SWIDTH 343 0
DWIDTH 11 0
BBX 12 52 0 -21
BITMAP
6000
9000
8BF0
9E00
6800
0800
0C00
0C00
0C00
0C00
0C00
0C00
0C00
0C00
0C00
0C00
0C00
0C00
0C00
0C00
0C00
0C00
0C00
0C00
0C00
0C00
0C00
0C00
0C00
0C00
0C00
0C00
0C00
0C00
0C00
0C00
0C00
0C00
0C00
0C00
0C00
0C00
0C00
0C00
0C00
0C00
0FF0
3C00
6C00
5800
5800
7000
ENDCHAR
STARTCHAR 005C
ENCODING 92
SWIDTH 281 0
DWIDTH 9 0
BBX 9 35 0 -4
BITMAP
C000
C000
4000
4000
6000
6000
2000
2000
3000
1000
1000
1000
1800
1800
0800
0800
0800
0C00
0400
0400
0400
0600
0600
0200
0200
0200
0300
0300
0100
0100
0180
0180
0180
0080
0080
ENDCHAR
STARTCHAR 005D
ENCODING 93
SWIDTH 312 0
DWIDTH 10 0
BBX 12 52 0 -20
BITMAP
0020
00D0
00D0
00B0
3FE0
0180
0180
0180
0180
0180
0180
0180
0180
0180
0180
0180
0100
0100
0300
0300
0300
0300
0300
0300
0300
0300
0300
0300
0300
0300
0300
0300
0300
0300
0300
0300
0300
0300
0300
0200
0200
0200
0200
0200
0200
0200
0300
03C0
7F20
E120
01A0
0040
ENDCHAR
STARTCHAR 005F
ENCODING 95
SWIDTH 437 0
DWIDTH 14 0
BBX 12 2 1 -1
BITMAP
1FF0
E000
ENDCHAR
STARTCHAR 0061
ENCODING 97
SWIDTH 562 0
DWIDTH 18 0
BBX 18 18 0 1
BITMAP
007800
018800
020E00
0C0A00
0C1A00
181A00
301200
303400
703400
603800
603800
E030C0
E03080
E07180
E0DB00
631E00
7E0000
100000
ENDCHAR
STARTCHAR 0062
ENCODING 98
SWIDTH 500 0
DWIDTH 16 0
BBX 20 34 -4 -6
BITMAP
001E00
003300
006300
004300
00C300
008300
008300
018700
010600
010600
010E00
010C00
010C00
021D80
021C40
021840
021860
023860
023060
023070
027070
026070
026060
026060
02C060
02C0E0
01C0C0
0180C0
0181C0
838380
838300
466E00
7C1000
380000
ENDCHAR
STARTCHAR 0063
ENCODING 99
SWIDTH 406 0
DWIDTH 13 0
BBX 13 17 0 0
BITMAP
03C0
0630
0C00
1C00
3800
3000
3000
7000
6000
6000
6000
E000
6008
6010
7010
7820
3FC0
ENDCHAR
STARTCHAR 0064
ENCODING 100
SWIDTH 531 0
DWIDTH 17 0
BBX 20 34 0 -2
BITMAP
0000C0
0001E0
000320
000730
000630
000620
000E20
000E20
000C20
000C20
001C40
001C40
001C40
0018C0
001880
001880
001980
01F900
039900
061B00
0C1A00
181E00
301C00
701C00
601800
601800
E01800
C03C00
C02C00
C04400
C08600
630200
3E0300
000100
ENDCHAR
STARTCHAR 0065
ENCODING 101
SWIDTH 406 0
DWIDTH 13 0
BBX 13 21 0 -2
BITMAP
03C0
0620
0C30
1810
3810
3010
7030
6030
7060
ED80
E200
C000
C000
E000
E000
E008
6010
7010
3830
1C60
0780
ENDCHAR
STARTCHAR 0066
ENCODING 102
SWIDTH 406 0
DWIDTH 13 0
BBX 15 43 0 -16
BITMAP
0008
0034
0042
00C2
00C2
0082
0182
0186
0186
0306
0306
0304
030C
020C
060C
0618
0618
0610
3430
4C20
8C40
8C80
8900
8A80
7C40
1820
1830
1810
1810
1810
1818
1018
1018
1018
1018
1018
1038
1830
1830
0830
0C60
04E0
0380
ENDCHAR
STARTCHAR 0067
ENCODING 103
SWIDTH 562 0
DWIDTH 18 0
BBX 17 44 1 -24
BITMAP
003E00
004D00
018900
039900
071900
061900
0C1900
1C1200
381200
303200
703400
703400
E03800
E03080
C03100
C03200
C07400
E1A800
623800
3C3000
006000
00E000
01A000
032000
062000
0C2000
0C2000
182000
382000
302000
302000
602000
602000
602000
E02000
E02000
E02000
E02000
E02000
606000
606000
304000
388000
0F0000
ENDCHAR
STARTCHAR 0068
ENCODING 104
SWIDTH 500 0
DWIDTH 16 0
BBX 16 37 0 -6
BITMAP
0180
03C0
0640
0640
0C40
0C80
1C80
1900
1A00
1C00
3800
3800
7000
3000
3000
3000
3000
30E0
6170
6230
6430
6830
6830
7030
7030
7030
6030
6030
6070
6070
E030
C031
C03F
C01C
C000
C000
C000
ENDCHAR
STARTCHAR 0069
ENCODING 105
SWIDTH 156 0
DWIDTH 5 0
BBX 5 26 0 -1
BITMAP
10
38
10
00
00
00
00
00
00
00
20
60
60
60
60
40
40
C0
C0
C0
C0
C0
40
48
48
30
ENDCHAR
STARTCHAR 006A
ENCODING 106
SWIDTH 250 0
DWIDTH 8 0
BBX 16 54 -5 -22
BITMAP
0007
0006
0006
0000
0000
0000
0000
0000
0000
0000
0000
0004
0018
0030
0030
0030
0030
0030
0030
0030
0030
0030
0030
0030
0030
0030
0030
0030
0070
0070
0070
0060
0060
0060
0060
0060
0060
0060
0060
0060
0060
0060
0060
0060
0040
00C0
00C0
00C0
0080
0080
C180
4100
6600
1C00
ENDCHAR
STARTCHAR 006B
ENCODING 107
SWIDTH 437 0
DWIDTH 14 0
BBX 17 38 -2 -9
BITMAP
060000
060000
0E0000
0E0000
0C0000
0C0000
0C0000
0C0000
0C0000
0C1000
0C7800
0C4C00
0C8C00
0D0800
0D1800
0E1000
0E2000
0C6000
0CC000
0DE000
0E3000
0E1000
141000
141800
241800
2C1800
2C1800
4C0800
4C0800
4C0880
480580
880200
980000
980000
980000
B00000
F00000
600000
ENDCHAR
STARTCHAR 006C
ENCODING 108
SWIDTH 375 0
DWIDTH 12 0
BBX 15 35 -3 -4
BITMAP
0070
00F8
0198
0118
021C
020C
060C
060C
040C
040C
040C
0408
0418
0418
0C18
0C18
0C18
0418
0430
0430
0430
0430
0460
0460
0260
02C0
03C0
01C0
0180
6180
C342
863C
8C18
D800
7000
ENDCHAR
STARTCHAR 006D
ENCODING 109
SWIDTH 625 0
DWIDTH 20 0
BBX 20 19 0 -2
BITMAP
400000
61C3C0
624440
346C60
386860
186860
1870E0
1870C0
3C70C0
2C30C0
2C20C0
4C20C0
4C20C0
4C0080
8C0180
8C0180
980080
980080
7000F0
ENDCHAR
STARTCHAR 006E
ENCODING 110
SWIDTH 500 0
DWIDTH 16 0
BBX 15 19 0 0
BITMAP
60F0
6138
3218
341C
340C
180C
180C
180C
2C0C
2C08
4C08
4C08
4608
8608
8608
860E
8C02
8C00
7800
ENDCHAR
STARTCHAR 006F
ENCODING 111
SWIDTH 468 0
DWIDTH 15 0
BBX 14 20 0 -1
BITMAP
0004
0004
01E8
0618
0838
1EE8
3388
3008
6018
6018
E018
C018
C018
C018
C038
E030
6060
6060
3180
0E00
ENDCHAR
STARTCHAR 0070
ENCODING 112
SWIDTH 468 0
DWIDTH 15 0
BBX 15 40 0 -20
BITMAP
0030
0078
00FC
010C
220C
2206
3406
3406
3804
180C
180C
1808
1810
1810
1820
18C0
1B00
2800
2800
2800
2800
2C00
4C00
4C00
4C00
4C00
4C00
4C00
8C00
8C00
8C00
8C00
8C00
8C00
8C00
8C00
8C00
8C00
D800
7000
ENDCHAR
STARTCHAR 0071
ENCODING 113
SWIDTH 562 0
DWIDTH 18 0
BBX 19 37 0 -14
BITMAP
003C00
00C380
010340
070340
0E0640
1C0680
380680
380C80
700D00
700D00
700A00
E00C00
E01C00
E01F00
E01880
6030C0
703040
38F040
1F3060
003060
003020
003020
007020
007020
007020
007020
007020
007020
007020
003020
003020
003020
003020
001820
001840
000EC0
000100
ENDCHAR
STARTCHAR 0072
ENCODING 114
SWIDTH 406 0
DWIDTH 13 0
BBX 19 22 -4 -6
BITMAP
0000C0
01C1C0
026380
024D00
035300
01E200
00C600
018600
018C00
018C00
031C00
031C00
020C00
060C20
040E20
040740
0C0080
080000
980000
900000
A00000
C00000
ENDCHAR
STARTCHAR 0073
ENCODING 115
SWIDTH 312 0
DWIDTH 10 0
BBX 10 25 0 -7
BITMAP
0600
3900
6100
4000
C000
C000
C000
E000
6000
3000
1C00
0600
0300
0100
0080
0080
0080
0080
0080
1E80
2180
61C0
4300
6600
7800
ENDCHAR
STARTCHAR 0074
ENCODING 116
SWIDTH 375 0
DWIDTH 12 0
BBX 14 34 -2 -4
BITMAP
0070
00B0
0118
0118
0110
0310
0230
0230
0230
0220
0260
0260
0250
03E0
06C0
0AC0
02C0
0280
0280
0380
0380
0300
0300
0300
0300
0700
0700
0504
0584
0884
0888
9050
5020
6000
ENDCHAR
STARTCHAR 0075
ENCODING 117
SWIDTH 531 0
DWIDTH 17 0
BBX 19 19 0 -1
BITMAP
000300
180500
100D00
200900
201900
201900
601900
401200
401200
401200
C01420
C01440
E01840
E01840
601840
602880
704D80
788700
3F0000
ENDCHAR
STARTCHAR 0076
ENCODING 118
SWIDTH 375 0
DWIDTH 12 0
BBX 17 21 -2 -3
BITMAP
000780
000C00
000C00
001800
001800
101000
7C3000
8E3000
062000
032000
032000
012000
014000
014000
014000
014000
014000
014000
00C000
008000
008000
ENDCHAR
STARTCHAR 0077
ENCODING 119
SWIDTH 531 0
DWIDTH 17 0
BBX 18 21 -1 -4
BITMAP
001800
003800
002800
402800
E028C0
F028C0
383080
1C3180
0C3180
0E7180
067180
03B180
039100
039100
019900
018A00
018600
010000
010000
010000
010000
ENDCHAR
STARTCHAR 0078
ENCODING 120
SWIDTH 375 0
DWIDTH 12 0
BBX 19 23 0 -6
BITMAP
780000
8C0000
8C0000
C41800
463000
066000
066000
06C000
028000
038000
030000
070000
070000
0F0000
190000
318000
718000
018000
00C000
00C000
006060
0030C0
000F00
ENDCHAR
STARTCHAR 0079
ENCODING 121
SWIDTH 562 0
DWIDTH 18 0
BBX 17 43 0 -21
BITMAP
100000
680000
CC0380
8C0280
CC0680
6C0480
0C0D00
0C0D00
0C0D00
0C0E00
0C1A00
181A00
181C00
181C00
181800
181800
183800
183980
1C5B00
0C8A00
0F0C00
000C00
000800
001C00
001C00
003C00
002C00
006C00
006C00
00C400
00C400
008400
018400
018400
010400
030400
030C00
020C00
060C00
060800
061800
063000
03E000
ENDCHAR
STARTCHAR 007A
ENCODING 122
SWIDTH 500 0
DWIDTH 16 0
BBX 18 20 0 -5
BITMAP
000C00
001200
006600
0FFC00
304000
60C000
408000
018000
018000
030000
030000
060000
060000
0C0000
0C0000
187E00
1383C0
3C00C0
700000
C00000
ENDCHAR
STARTCHAR 007B
ENCODING 123
SWIDTH 656 0
DWIDTH 21 0
BBX 20 49 0 -18
BITMAP
003000
004E00
008200
018300
010000
030000
020000
060000
060000
040000
040000
040000
040000
040000
0C0000
0C0000
0C0000
0C0000
0C0000
0C0000
0C0000
0C0000
3E0000
6E0000
490000
890000
990000
F18000
E08000
008000
008000
008000
008000
008000
008000
008000
008000
008000
008000
008000
00C000
00C000
00C000
00C000
006010
007030
007060
003FC0
001F00
ENDCHAR
STARTCHAR 007D
ENCODING 125
SWIDTH 656 0
DWIDTH 21 0
BBX 20 49 0 -18
BITMAP
070000
1FC000
3FC000
60E000
C06000
807000
003000
003000
003000
001000
001000
001000
001000
001000
001000
001000
001000
001000
001000
001000
001000
001870
0008D0
000990
000910
000D30
0007E0
0003C0
000300
000300
000300
000300
000300
000300
000300
000300
000300
000300
000200
000200
000200
000200
000600
000400
000400
080C00
0C0800
061000
03E000
ENDCHAR
STARTCHAR 007E
ENCODING 126
SWIDTH 500 0
DWIDTH 16 0
BBX 14 6 1 5
BITMAP
0078
00F8
7104
4228
8C10
7800
ENDCHAR
STARTCHAR 00A0
ENCODING 160
SWIDTH 281 0
DWIDTH 9 0
BBX 0 0 0 0
BITMAP
ENDCHAR
STARTCHAR 00A2
ENCODING 162
SWIDTH 343 0
DWIDTH 11 0
BBX 8 20 1 5
BITMAP
08
04
0C
0C
0C
0E
1D
3C
6C
68
C8
C8
C8
C8
C9
7E
08
08
08
10
ENDCHAR
STARTCHAR 00AD
ENCODING 173
SWIDTH 281 0
DWIDTH 9 0
BBX 8 2 0 13
BITMAP
3F
F0
ENDCHAR
STARTCHAR 037E
ENCODING 894
SWIDTH 156 0
DWIDTH 5 0
BBX 3 11 2 1
BITMAP
60
60
60
00
00
60
E0
60
20
40
80
ENDCHAR
STARTCHAR 2018
ENCODING 8216
SWIDTH 250 0
DWIDTH 8 0
BBX 3 6 3 24
BITMAP
20
40
40
E0
E0
40
ENDCHAR
STARTCHAR 2019
ENCODING 8217
SWIDTH 250 0
DWIDTH 8 0
BBX 3 5 3 24
BITMAP
60
E0
60
20
40
ENDCHAR
STARTCHAR 201C
ENCODING 8220
SWIDTH 343 0
DWIDTH 11 0
BBX 5 5 3 26
BITMAP
D8
D8
50
50
50
ENDCHAR
STARTCHAR 201D
ENCODING 8221
SWIDTH 343 0
DWIDTH 11 0
BBX 5 5 3 26
BITMAP
D8
D0
50
50
50
ENDCHAR
ENDFONT
